ply
format ascii 1.0
comment Created by Blender 2.69 (sub 0) - www.blender.org, source file: 'Speakers2Finished.blend'
element vertex 4
property float x
property float y
property float z
property float nx
property float ny
property float nz
element face 1
property list uchar uint vertex_indices
end_header
-30.878359 73.246834 -73.246834 1.000000 0.000000 0.000000
-30.878387 73.246834 73.246834 1.000000 0.000000 0.000000
-30.878366 -73.246834 73.246834 1.000000 0.000000 0.000000
-30.878338 -73.246834 -73.246834 1.000000 0.000000 0.000000
4 0 1 2 3
